<svg id="Layer_1" data-name="Layer 1" xmlns="http://www.w3.org/2000/svg" viewBox="0 0 220 68"><defs><style>.cls-1{fill:#ee3643;}.cls-2{fill:#b52933;}.cls-3{fill:#fff;}</style></defs><title>techno-header-logo</title><rect class="cls-1" width="220" height="68"/><rect class="cls-2" y="63" width="220" height="5"/><path id="ТЕХНОМАРТ" class="cls-3" d="M288,570.91h3.84V586H294V570.91h3.84v-1.68H288Zm14,7.2h5.28v-1.68h-5.28v-5.52h6v-1.68h-8.16V586h8.16v-1.68h-6v-6.24ZM315,576l-2.64-6.72h-2.16l3.24,8.16-3.6,8.64H312l3-7.2,3,7.2h2.16l-3.6-8.64,3.24-8.16h-2.16Zm14.45-6.72v7.44h-5v-7.44h-2.16V586h2.16v-7.68h5V586h2.16v-16.8Zm7.79.17a3.83,3.83,0,0,0-1.62,1.39,7.62,7.62,0,0,0-1,2.66,25.93,25.93,0,0,0,0,8.37,7.64,7.64,0,0,0,1,2.65,3.85,3.85,0,0,0,1.62,1.4,6,6,0,0,0,4.35,0,3.85,3.85,0,0,0,1.62-1.4,7.45,7.45,0,0,0,1-2.65,25.2,25.2,0,0,0,0-8.37,7.43,7.43,0,0,0-1-2.66,3.83,3.83,0,0,0-1.62-1.39,6,6,0,0,0-4.35,0Zm1,15.12a2.59,2.59,0,0,1-1-1.13,8.46,8.46,0,0,1-.66-2.2,25.4,25.4,0,0,1,0-7.11,8.65,8.65,0,0,1,.66-2.21,2.62,2.62,0,0,1,1-1.12,2.18,2.18,0,0,1,2.26,0,2.55,2.55,0,0,1,1,1.12,8.65,8.65,0,0,1,.66,2.21,25.4,25.4,0,0,1,0,7.11,8.46,8.46,0,0,1-.66,2.2,2.52,2.52,0,0,1-1,1.13,2.18,2.18,0,0,1-2.26,0Zm17.12-.65,3.48-10.32H359l.72,12.48h2.16l-1-16.8h-2.64l-3.91,11.52h-.1l-3.91-11.52h-2.64l-1,16.8h2.16l.72-12.48h.12l3.48,10.32Zm16.51-2.16L373,586h2.16L371,569.23h-3.12L363.84,586H366l1.08-4.32Zm-.36-1.68h-4.08l2-8.4h.1Zm7.9-.6v-8.88h1.68a4.39,4.39,0,0,1,1.4.2,2,2,0,0,1,1,.71,3.45,3.45,0,0,1,.57,1.37,13.05,13.05,0,0,1,0,4.32,3.45,3.45,0,0,1-.57,1.37,2,2,0,0,1-1,.71,4.39,4.39,0,0,1-1.4.2Zm0,1.44a9.12,9.12,0,0,0,1.15.17,10.59,10.59,0,0,0,1.25.07,5.82,5.82,0,0,0,2-.3,3.11,3.11,0,0,0,1.42-1,4.88,4.88,0,0,0,.84-1.89,13.05,13.05,0,0,0,.27-2.93,11.89,11.89,0,0,0-.29-2.85,4.18,4.18,0,0,0-.91-1.85,3.42,3.42,0,0,0-1.63-1,8.44,8.44,0,0,0-2.45-.3,16.76,16.76,0,0,0-2,.11,11.41,11.41,0,0,0-1.83.37V586h2.16v-5.16Zm8.38-10h3.84V586h2.16V570.91h3.84v-1.68h-9.85v1.68Z" transform="scale(1.25) translate(-255 -553)"/></svg>